<svg width="16" height="17" viewBox="0 0 16 17" fill="none" xmlns="http://www.w3.org/2000/svg">
<path fill-rule="evenodd" clip-rule="evenodd" d="M11.5739 0.945312H4.40616C1.97203 0.945312 -0.00830078 2.81691 -0.00830078 5.11729V11.8912C-0.00830078 14.1916 1.97203 16.0631 4.40616 16.0631H11.5739C14.0082 16.0631 15.9886 14.1915 15.9886 11.8912V5.11729C15.9887 2.81691 14.0082 0.945312 11.5739 0.945312ZM14.5697 11.8913C14.5697 13.4521 13.226 14.7219 11.5744 14.7219H4.40652C2.755 14.722 1.41138 13.4521 1.41138 11.8913V5.11738C1.41138 3.55661 2.755 2.28673 4.40652 2.28673H11.5743C13.2259 2.28673 14.5696 3.55661 14.5696 5.11738V11.8913H14.5697ZM3.9917 8.50387C3.9917 6.4198 5.78572 4.72433 7.99092 4.72433C10.1961 4.72433 11.9901 6.4198 11.9901 8.50387C11.9901 10.5879 10.1961 12.2832 7.99092 12.2832C5.78572 12.2832 3.9917 10.5879 3.9917 8.50387ZM7.98985 10.9818C6.54404 10.9818 5.36768 9.87023 5.36768 8.50384C5.36768 7.13736 6.54395 6.0257 7.98985 6.0257C9.43575 6.0257 10.612 7.13736 10.612 8.50384C10.612 9.87023 9.43565 10.9818 7.98985 10.9818ZM11.2831 4.05619C11.4687 3.88006 11.7268 3.77953 11.9895 3.77953C12.2531 3.77953 12.5113 3.88006 12.6968 4.05619C12.8831 4.23147 12.9895 4.47548 12.9895 4.72465C12.9895 4.97296 12.8831 5.21697 12.6968 5.39311C12.5104 5.56838 12.2531 5.66977 11.9895 5.66977C11.7268 5.66977 11.4686 5.56838 11.2831 5.39311C11.0968 5.21697 10.9895 4.97304 10.9895 4.72465C10.9895 4.47548 11.0967 4.23147 11.2831 4.05619Z" fill="white"/>
</svg>
