<svg width="19" height="12" viewBox="0 0 19 12" fill="none" xmlns="http://www.w3.org/2000/svg">
<path d="M16.2261 7.4446C16.8515 8.03941 17.5116 8.59903 18.0725 9.25381C18.3202 9.54479 18.5548 9.84506 18.7343 10.1827C18.9886 10.6628 18.7583 11.191 18.3164 11.2197L15.5698 11.2185C14.8614 11.2757 14.2963 10.9979 13.8211 10.5261C13.4408 10.1488 13.0887 9.74718 12.723 9.35712C12.5731 9.19769 12.4162 9.04768 12.2287 8.92911C11.8538 8.69202 11.5283 8.76461 11.3141 9.14556C11.0958 9.53302 11.0463 9.96206 11.0249 10.3939C10.9955 11.0239 10.8 11.1896 10.1503 11.2184C8.76188 11.2822 7.4442 11.0776 6.22011 10.3953C5.14091 9.79376 4.30404 8.94462 3.57564 7.98329C2.15741 6.11138 1.07134 4.05446 0.0952163 1.93992C-0.124501 1.46351 0.0361831 1.20777 0.575782 1.19872C1.47181 1.18176 2.36772 1.18297 3.2648 1.19751C3.62897 1.2027 3.87006 1.40618 4.01067 1.74133C4.49545 2.90251 5.08863 4.00727 5.83321 5.0313C6.03149 5.30393 6.23368 5.57656 6.5216 5.76845C6.84012 5.98092 7.08263 5.9105 7.23247 5.56485C7.32756 5.34569 7.36918 5.10962 7.39062 4.87489C7.46161 4.06732 7.47096 3.26113 7.34645 2.45639C7.27001 1.95416 6.97961 1.62903 6.46517 1.53399C6.20264 1.48553 6.24173 1.39037 6.36884 1.2444C6.58961 0.992649 6.79725 0.835938 7.21116 0.835938H10.3153C10.804 0.929892 10.9125 1.14375 10.9794 1.62275L10.982 4.98164C10.9767 5.16707 11.0771 5.71734 11.42 5.84008C11.6944 5.92745 11.8753 5.7136 12.0399 5.54409C12.7831 4.77568 13.3136 3.86758 13.7874 2.92725C13.9978 2.51378 14.1786 2.08438 14.3538 1.65534C14.4836 1.33697 14.6874 1.18032 15.0555 1.18726L18.043 1.18985C18.1316 1.18985 18.2213 1.19112 18.3071 1.20542C18.8105 1.28899 18.9484 1.49995 18.7929 1.97884C18.548 2.73017 18.0713 3.35629 17.6052 3.98531C17.107 4.65687 16.5742 5.30544 16.0801 5.98098C15.6262 6.59787 15.6622 6.90882 16.2261 7.4446Z" fill="white"/>
</svg>
